<?xml version="1.0" encoding="utf-8"?>
<!-- Generator: Adobe Illustrator 16.0.0, SVG Export Plug-In . SVG Version: 6.00 Build 0)  -->
<!DOCTYPE svg PUBLIC "-//W3C//DTD SVG 1.1//EN" "http://www.w3.org/Graphics/SVG/1.1/DTD/svg11.dtd">
<svg version="1.1" id="Capa_1" xmlns="http://www.w3.org/2000/svg" xmlns:xlink="http://www.w3.org/1999/xlink" x="0px" y="0px"
	 width="91.236px" height="13.799px" viewBox="0 0 91.236 13.799" enable-background="new 0 0 91.236 13.799" xml:space="preserve">
<g>
	<path d="M3.902,10.4c-1.055,0-1.879-0.291-2.473-0.873S0.539,8.121,0.539,7.055c0-1.098,0.274-1.946,0.823-2.546
		S2.67,3.609,3.639,3.609c0.926,0,1.646,0.264,2.162,0.791s0.773,1.256,0.773,2.186v0.867H2.35c0.02,0.508,0.17,0.904,0.451,1.189
		S3.477,9.07,3.984,9.07c0.395,0,0.768-0.041,1.119-0.123s0.719-0.213,1.102-0.393v1.383c-0.313,0.156-0.646,0.272-1.002,0.349
		S4.414,10.4,3.902,10.4z M3.65,4.881c-0.379,0-0.676,0.12-0.891,0.36S2.422,5.822,2.391,6.264h2.508
		C4.891,5.822,4.775,5.481,4.553,5.241S4.029,4.881,3.65,4.881z"/>
	<path d="M12.668,10.283l-0.24-0.838h-0.094c-0.191,0.305-0.463,0.54-0.814,0.706S10.768,10.4,10.318,10.4
		c-0.77,0-1.35-0.206-1.74-0.618S7.992,8.777,7.992,8.004V3.732h1.787v3.826c0,0.473,0.084,0.827,0.252,1.063
		s0.436,0.354,0.803,0.354c0.5,0,0.861-0.167,1.084-0.501s0.334-0.888,0.334-1.661V3.732h1.787v6.551H12.668z"/>
	<path d="M19.57,3.609c0.242,0,0.443,0.018,0.604,0.053l-0.135,1.676c-0.145-0.039-0.32-0.059-0.527-0.059
		c-0.57,0-1.015,0.146-1.333,0.439s-0.478,0.703-0.478,1.23v3.334h-1.787V3.732h1.354l0.264,1.102h0.088
		c0.203-0.367,0.478-0.663,0.823-0.888S19.164,3.609,19.57,3.609z"/>
	<path d="M27.316,6.996c0,1.066-0.281,1.9-0.844,2.502s-1.346,0.902-2.35,0.902c-0.629,0-1.184-0.138-1.664-0.413
		s-0.85-0.671-1.107-1.187s-0.387-1.117-0.387-1.805c0-1.07,0.279-1.902,0.838-2.496s1.344-0.891,2.355-0.891
		c0.629,0,1.184,0.137,1.664,0.41s0.85,0.666,1.107,1.178S27.316,6.309,27.316,6.996z M22.787,6.996
		c0,0.648,0.106,1.139,0.319,1.471s0.56,0.498,1.04,0.498c0.477,0,0.819-0.165,1.028-0.495s0.313-0.821,0.313-1.474
		c0-0.648-0.105-1.135-0.316-1.459s-0.557-0.486-1.037-0.486c-0.477,0-0.82,0.161-1.031,0.483S22.787,6.344,22.787,6.996z"/>
	<path d="M32.391,10.4c-0.77,0-1.373-0.279-1.811-0.838h-0.094c0.063,0.547,0.094,0.863,0.094,0.949v2.654h-1.787V3.732h1.453
		l0.252,0.85h0.082c0.418-0.648,1.037-0.973,1.857-0.973c0.773,0,1.379,0.299,1.816,0.896s0.656,1.428,0.656,2.49
		c0,0.699-0.103,1.307-0.308,1.822s-0.497,0.908-0.876,1.178S32.902,10.4,32.391,10.4z M31.863,5.039
		c-0.441,0-0.764,0.136-0.967,0.407s-0.309,0.72-0.316,1.345v0.193c0,0.703,0.104,1.207,0.313,1.512s0.54,0.457,0.993,0.457
		c0.801,0,1.201-0.66,1.201-1.98c0-0.645-0.099-1.128-0.296-1.45S32.285,5.039,31.863,5.039z"/>
	<path d="M40.547,10.283l-0.346-0.891h-0.047c-0.301,0.379-0.61,0.642-0.929,0.788s-0.733,0.22-1.245,0.22
		c-0.629,0-1.124-0.18-1.485-0.539s-0.542-0.871-0.542-1.535c0-0.695,0.243-1.208,0.729-1.538s1.22-0.513,2.2-0.548l1.137-0.035
		V5.918c0-0.664-0.34-0.996-1.02-0.996c-0.523,0-1.139,0.158-1.846,0.475l-0.592-1.207c0.754-0.395,1.59-0.592,2.508-0.592
		c0.879,0,1.553,0.191,2.021,0.574s0.703,0.965,0.703,1.746v4.365H40.547z M40.02,7.248l-0.691,0.023
		c-0.52,0.016-0.906,0.109-1.16,0.281s-0.381,0.434-0.381,0.785c0,0.504,0.289,0.756,0.867,0.756c0.414,0,0.745-0.119,0.993-0.357
		s0.372-0.555,0.372-0.949V7.248z"/>
	<path fill="#CC0000" d="M47.232,10.4c-0.77,0-1.373-0.279-1.811-0.838h-0.094c0.063,0.547,0.094,0.863,0.094,0.949v2.654h-1.787
		V3.732h1.453l0.252,0.85h0.082c0.418-0.648,1.037-0.973,1.857-0.973c0.773,0,1.379,0.299,1.816,0.896s0.656,1.428,0.656,2.49
		c0,0.699-0.103,1.307-0.308,1.822s-0.497,0.908-0.876,1.178S47.744,10.4,47.232,10.4z M46.705,5.039
		c-0.441,0-0.764,0.136-0.967,0.407s-0.309,0.72-0.316,1.345v0.193c0,0.703,0.104,1.207,0.313,1.512s0.54,0.457,0.993,0.457
		c0.801,0,1.201-0.66,1.201-1.98c0-0.645-0.099-1.128-0.296-1.45S47.127,5.039,46.705,5.039z"/>
	<path fill="#CC0000" d="M54.885,3.609c0.242,0,0.443,0.018,0.604,0.053l-0.135,1.676c-0.145-0.039-0.32-0.059-0.527-0.059
		c-0.57,0-1.015,0.146-1.333,0.439s-0.478,0.703-0.478,1.23v3.334h-1.787V3.732h1.354l0.264,1.102h0.088
		c0.203-0.367,0.478-0.663,0.823-0.888S54.479,3.609,54.885,3.609z"/>
	<path fill="#CC0000" d="M59.643,10.4c-1.055,0-1.879-0.291-2.473-0.873s-0.891-1.406-0.891-2.473c0-1.098,0.274-1.946,0.823-2.546
		s1.308-0.899,2.276-0.899c0.926,0,1.646,0.264,2.162,0.791s0.773,1.256,0.773,2.186v0.867H58.09c0.02,0.508,0.17,0.904,0.451,1.189
		s0.676,0.428,1.184,0.428c0.395,0,0.768-0.041,1.119-0.123s0.719-0.213,1.102-0.393v1.383c-0.313,0.156-0.646,0.272-1.002,0.349
		S60.154,10.4,59.643,10.4z M59.391,4.881c-0.379,0-0.676,0.12-0.891,0.36s-0.338,0.581-0.369,1.022h2.508
		c-0.008-0.441-0.123-0.782-0.346-1.022S59.77,4.881,59.391,4.881z"/>
	<path fill="#CC0000" d="M68.338,8.338c0,0.672-0.233,1.184-0.7,1.535S66.473,10.4,65.543,10.4c-0.477,0-0.883-0.032-1.219-0.097
		s-0.65-0.159-0.943-0.284V8.543c0.332,0.156,0.706,0.287,1.122,0.393s0.782,0.158,1.099,0.158c0.648,0,0.973-0.188,0.973-0.563
		c0-0.141-0.043-0.255-0.129-0.343S66.211,8.001,66,7.89s-0.492-0.241-0.844-0.39c-0.504-0.211-0.874-0.406-1.11-0.586
		s-0.408-0.386-0.516-0.618s-0.161-0.519-0.161-0.858c0-0.582,0.226-1.032,0.677-1.351s1.091-0.478,1.919-0.478
		c0.789,0,1.557,0.172,2.303,0.516l-0.539,1.289c-0.328-0.141-0.635-0.256-0.92-0.346s-0.576-0.135-0.873-0.135
		c-0.527,0-0.791,0.143-0.791,0.428c0,0.16,0.085,0.299,0.255,0.416s0.542,0.291,1.116,0.521c0.512,0.207,0.887,0.4,1.125,0.58
		s0.414,0.387,0.527,0.621S68.338,8.014,68.338,8.338z"/>
	<path fill="#CC0000" d="M74.303,8.338c0,0.672-0.233,1.184-0.7,1.535S72.438,10.4,71.508,10.4c-0.477,0-0.883-0.032-1.219-0.097
		s-0.65-0.159-0.943-0.284V8.543c0.332,0.156,0.706,0.287,1.122,0.393s0.782,0.158,1.099,0.158c0.648,0,0.973-0.188,0.973-0.563
		c0-0.141-0.043-0.255-0.129-0.343s-0.234-0.188-0.445-0.299s-0.492-0.241-0.844-0.39c-0.504-0.211-0.874-0.406-1.11-0.586
		s-0.408-0.386-0.516-0.618s-0.161-0.519-0.161-0.858c0-0.582,0.226-1.032,0.677-1.351s1.091-0.478,1.919-0.478
		c0.789,0,1.557,0.172,2.303,0.516l-0.539,1.289c-0.328-0.141-0.635-0.256-0.92-0.346S72.197,4.934,71.9,4.934
		c-0.527,0-0.791,0.143-0.791,0.428c0,0.16,0.085,0.299,0.255,0.416s0.542,0.291,1.116,0.521c0.512,0.207,0.887,0.4,1.125,0.58
		S74.02,7.266,74.133,7.5S74.303,8.014,74.303,8.338z"/>
	<path d="M75.445,9.445c0-0.328,0.088-0.576,0.264-0.744s0.432-0.252,0.768-0.252c0.324,0,0.575,0.086,0.753,0.258
		s0.267,0.418,0.267,0.738c0,0.309-0.09,0.552-0.27,0.729s-0.43,0.267-0.75,0.267c-0.328,0-0.582-0.087-0.762-0.261
		S75.445,9.762,75.445,9.445z"/>
	<path d="M82.084,10.4c-1.055,0-1.879-0.291-2.473-0.873s-0.891-1.406-0.891-2.473c0-1.098,0.274-1.946,0.823-2.546
		s1.308-0.899,2.276-0.899c0.926,0,1.646,0.264,2.162,0.791s0.773,1.256,0.773,2.186v0.867h-4.225
		c0.02,0.508,0.17,0.904,0.451,1.189s0.676,0.428,1.184,0.428c0.395,0,0.768-0.041,1.119-0.123s0.719-0.213,1.102-0.393v1.383
		c-0.313,0.156-0.646,0.272-1.002,0.349S82.596,10.4,82.084,10.4z M81.832,4.881c-0.379,0-0.676,0.12-0.891,0.36
		s-0.338,0.581-0.369,1.022h2.508c-0.008-0.441-0.123-0.782-0.346-1.022S82.211,4.881,81.832,4.881z"/>
	<path d="M90.779,8.338c0,0.672-0.233,1.184-0.7,1.535S88.914,10.4,87.984,10.4c-0.477,0-0.883-0.032-1.219-0.097
		s-0.65-0.159-0.943-0.284V8.543c0.332,0.156,0.706,0.287,1.122,0.393s0.782,0.158,1.099,0.158c0.648,0,0.973-0.188,0.973-0.563
		c0-0.141-0.043-0.255-0.129-0.343s-0.234-0.188-0.445-0.299s-0.492-0.241-0.844-0.39c-0.504-0.211-0.874-0.406-1.11-0.586
		s-0.408-0.386-0.516-0.618s-0.161-0.519-0.161-0.858c0-0.582,0.226-1.032,0.677-1.351s1.091-0.478,1.919-0.478
		c0.789,0,1.557,0.172,2.303,0.516L90.17,5.414c-0.328-0.141-0.635-0.256-0.92-0.346s-0.576-0.135-0.873-0.135
		c-0.527,0-0.791,0.143-0.791,0.428c0,0.16,0.085,0.299,0.255,0.416s0.542,0.291,1.116,0.521c0.512,0.207,0.887,0.4,1.125,0.58
		s0.414,0.387,0.527,0.621S90.779,8.014,90.779,8.338z"/>
</g>
<g>
</g>
<g>
</g>
<g>
</g>
<g>
</g>
<g>
</g>
<g>
</g>
</svg>
